PathFileType	4	(X/Y/Z)	Patient4_TMGait_0pt3_02_right_15.trc.trc
DataRate	CameraRate	NumFrames	NumMarkers	Units	OrigDataRate	OrigDataStartFrame	OrigNumFrames
51.660516605166	51.660516605166	4	33	mm	51.660516605166	106	       141
Frame#	Time	Sacral			L.Shoulder			Chest			R.Shoulder			Neck			R.ASIS			L.ASIS			R.Thigh.Superior			R.Thigh.Lateral			R.Thigh.Inferior			R.Patella			L.Thigh.Superior			L.Thigh.Lateral			L.Thigh.Inferior			L.Patella			L.Shank.Superior			L.Shank.Lateral			L.Shank.Inferior			R.Shank.Superior			R.Shank.Lateral			R.Shank.Inferior			R.Heel			R.Midfoot.Superior			R.Midfoot.Lateral			R.Toe			L.Heel			L.Midfoot.Lateral			L.Midfoot.Superior			L.Toe			L.Elbow			L.Wrist			R.Elbow			R.Wrist			
		X1	Y1	Z1	X2	Y2	Z2	X3	Y3	Z3	X4	Y4	Z4	X5	Y5	Z5	X6	Y6	Z6	X7	Y7	Z7	X8	Y8	Z8	X9	Y9	Z9	X10	Y10	Z10	X11	Y11	Z11	X12	Y12	Z12	X13	Y13	Z13	X14	Y14	Z14	X15	Y15	Z15	X16	Y16	Z16	X17	Y17	Z17	X18	Y18	Z18	X19	Y19	Z19	X20	Y20	Z20	X21	Y21	Z21	X22	Y22	Z22	X23	Y23	Z23	X24	Y24	Z24	X25	Y25	Z25	X26	Y26	Z26	X27	Y27	Z27	X28	Y28	Z28	X29	Y29	Z29	X30	Y30	Z30	X31	Y31	Z31	X32	Y32	Z32	X33	Y33	Z33	

106	30.132500000000	700.450786659916	977.555069287619	419.281170581977	866.881993161179	1414.684006995635	233.445081977323	970.166594247556	1351.255759946622	396.094968342757	883.586807105134	1419.908924438671	569.523173394618	846.549427028462	1476.603140852646	391.918785984572	935.173459803918	926.965688772927	532.957799483660	919.679132673364	947.493587440619	260.630440757631	1023.431284748643	753.367506420916	493.359373296375	988.600827256935	632.208649278022	564.640244979204	1069.997201953757	594.497282438257	474.049835940131	1090.156964675676	479.717090250002	497.125483467143	994.092041356715	744.782553033873	307.829109302759	926.824161888813	613.333839316666	256.628465248099	1014.569831585203	551.069971875980	333.982969421689	1021.957646586430	476.595260441173	346.801530164087	983.162239404086	399.627460041801	340.774794509486	882.914669776920	295.173190396118	286.950531511648	909.924308417481	182.708019785666	366.211069605570	1008.383251299782	408.947845510254	514.580522195130	883.772080603514	380.071593079545	576.236305408731	866.019636699596	268.111565501464	537.787493601509	663.890892909741	215.432987140260	506.580058234833	825.966605010913	152.937682786977	567.437706682639	715.656830042875	168.323186671889	592.816526261280	877.264470962727	42.706366639622	615.963733229303	761.955877456403	37.964660645254	403.349615107617	837.480857854866	35.463992823694	323.645376264985	920.780640191506	95.458290777762	354.356956449151	1048.814151061838	46.081556185058	325.968716027910	969.745969030947	1091.100300597658	92.011103405693	1172.776295697287	925.184317418122	92.501075573132	888.222329309103	1064.549273366690	682.823350499831	1043.538144292340	860.503455212331	664.708904948790	
107	30.151857142857	699.460396202170	978.366674440863	415.521934487352	870.539842053800	1417.177637572325	235.373386166892	970.449674428256	1351.887820162685	399.329230827120	880.253898916180	1418.438010410264	571.718810710303	847.136265763610	1477.341186937586	394.234313623197	933.056471946679	927.984318026444	532.351188038908	920.782100292660	948.101335630977	259.776970964301	1022.914774780207	755.899288987499	492.764754625283	989.055277524688	634.714473373220	564.445104001223	1070.850936078194	597.528084097095	474.145218575905	1092.924944273716	483.938704502884	497.540520113039	992.898574876745	743.892707404763	307.043874554476	924.534653405579	612.914387783345	255.793523805589	1011.391587648010	550.052226162287	333.534564879891	1018.212463708156	475.664963904359	346.570357345983	978.981447141192	398.978012976403	340.470182724776	878.335792712499	294.910811253755	286.672941090680	904.583678307045	182.364833190789	366.044451252102	1013.812956654277	411.214577422789	515.499397675162	891.021923340286	377.642067797058	577.765677217441	877.747135883208	265.014910487242	539.355076893134	677.455566640103	201.226269019153	509.872012137412	843.833428039724	150.078331122884	568.734161990201	733.338331848743	157.962765354510	595.608641742809	903.189639592779	44.301117136369	616.884840694175	756.105889966817	38.011310185310	403.319264659349	831.671798775781	35.474010862050	323.625853372173	915.056242713134	95.361772226969	354.337285179597	1043.073560245546	45.720303177525	325.938243998832	980.106295285436	1098.437833087416	90.027808389321	1190.811737047365	941.961626502056	92.358907282035	868.818421194318	1063.072321297687	682.583883804220	1000.935641616579	841.055925744424	672.078435954135	
108	30.171214285714	698.691265774947	979.977712894961	411.905918864897	874.521631411478	1420.287280060069	237.621541804678	970.917320747981	1353.050593187705	402.822834441403	877.113553438917	1417.694601606090	573.988595893655	847.936242579015	1478.680211285347	396.794680183819	930.917062873875	929.606626178538	532.030095718036	922.054727709422	949.331140924701	259.250260231529	1021.952407699196	758.659958714579	492.719600259154	988.548428372285	637.519187463302	564.832400304126	1070.740735678662	600.637206817116	475.003554094522	1094.595432498916	488.577929363897	498.709398749081	991.235768317879	743.244704472155	306.548957037174	921.419727109998	612.976213633596	255.004244336670	1007.084874384930	549.234860485548	333.094053462231	1013.122154031608	475.066002491841	346.306197134455	973.696903055535	398.752156027352	340.068124962668	872.979687947457	294.788251532458	286.289040482350	898.828444179638	182.252041511862	365.810589007793	1018.796595600568	413.736468337060	517.027798082235	898.508239073016	374.486856380108	580.014838979479	890.585903084343	261.395010769947	541.393456680151	693.416929413081	185.380884035009	513.678551194472	863.619630225766	146.372401390995	570.235917724727	753.443704040490	146.102158047043	598.667610133270	931.326318392490	45.719325251291	617.469645634529	750.236939195347	38.046221877678	403.271481486371	825.839573017637	35.470586797581	323.595803220988	909.265246303950	95.308123161312	354.261820606035	1037.296468469123	45.459181274110	325.911476570779	990.325086589991	1106.633237711140	88.245474616305	1207.863128922236	959.558649659387	92.519332940224	848.966197844475	1063.386379094418	682.225092285618	957.474273684119	827.065984582678	679.023271658746	
109	30.190571428571	698.144790371870	982.276737260951	408.451152702442	878.791977573065	1423.883264279254	240.168972315222	971.547321395196	1354.639921735928	406.554610939981	874.180425315680	1417.621995379949	576.319316234249	848.938273745511	1480.526234519602	399.555870956715	928.735586811608	931.707157036756	532.017238853676	923.492566853045	951.088016489934	259.077839211642	1020.532599766079	761.521415874366	493.236482453070	987.061252419570	640.482765147718	565.769340514167	1069.668361877670	603.707762613808	476.589516469317	1095.160120913763	493.495443484680	500.558403715337	989.148517122269	742.811618319835	306.380336769998	917.592061102490	613.483332689072	254.264410343870	1001.762225899041	548.612522535781	332.686912487219	1006.816244475050	474.779387419665	346.023328981615	967.430647349611	398.918422958982	339.584785492605	866.945167192987	294.794831851413	285.804731046548	892.708540284398	182.349306971020	365.523209384292	1023.262820649375	416.464607714970	519.083592254907	906.186607760987	370.747962971994	582.875101183668	904.364243771732	257.489322161047	543.817998624533	711.689872921697	168.528770294196	517.838482101692	885.008159744505	142.149950410467	571.899532166733	775.749387231524	133.302937657290	601.855911322855	961.032749318271	47.180174349946	617.693552825418	744.354895052947	38.073022340391	403.202469228417	819.987326435508	35.454671277658	323.555644979730	903.421314813700	95.288952400720	354.141712711530	1031.488427360818	45.285790705615	325.892923468497	1000.365504034030	1115.525266139906	86.684550826350	1223.973090173937	977.810626056138	93.002030860483	828.736169926048	1065.481957388369	681.775912581147	914.100181916893	818.447310484447	685.368561269744	
